<?xml version="1.0" encoding="UTF-8" standalone="no"?>
<!-- Created with Inkscape (http://www.inkscape.org/) -->

<svg
   version="1.1"
   id="svg331"
   width="3426.6667"
   height="1041.3333"
   viewBox="0 0 3426.6667 1041.3333"
   xmlns="http://www.w3.org/2000/svg"
   xmlns:svg="http://www.w3.org/2000/svg">
  <defs
     id="defs335" />
  <g
     id="g337">
    <path
       style="fill:#000000;stroke-width:1.33333"
       d="m 2902,953.76674 c -162.754,-10.23485 -305.396,-108.91346 -372.842,-257.92922 -28.6356,-63.26771 -41.8386,-136.65612 -37.2713,-207.17087 3.7129,-57.32621 15.5028,-105.54626 38.0245,-155.51953 45.352,-100.63147 131.9124,-183.89928 233.2747,-224.4013 46.5715,-18.608866 82.4408,-26.896859 134.0947,-30.98402 89.9574,-7.117974 179.6504,13.704552 257.703,59.82668 54.2107,32.03357 104.001,79.17695 140.55,133.07818 28.3502,41.80961 52.3451,97.87233 63.0903,147.40666 12.7488,58.77114 13.8664,117.46517 3.3865,177.86682 -4.74,27.31904 -17.2538,68.69839 -28.6472,94.7265 -5.7508,13.13782 -22.633,46.01919 -26.6701,51.94538 -1.2695,1.86337 -4.9447,7.57697 -8.1672,12.69689 -20.7343,32.94208 -54.7631,71.10416 -88.0191,98.71029 -85.438,70.9228 -196.3946,106.79774 -308.5068,99.74754 z m 57.4731,-3.1177 c 22.6749,-1.78163 45.0656,-4.83748 59.8603,-8.16968 84.6654,-19.06914 153.9538,-56.0463 214.4773,-114.46016 21.6356,-20.88137 47.6044,-52.42848 62.0485,-75.37696 3.2226,-5.11992 6.8978,-10.83352 8.1672,-12.69689 4.0371,-5.92619 20.9194,-38.80756 26.6702,-51.94537 11.3933,-26.02812 23.9072,-67.40747 28.6472,-94.72651 10.329,-59.5323 9.2548,-114.25782 -3.3866,-172.53348 -10.7452,-49.53434 -34.7401,-105.59705 -63.0902,-147.40667 -36.5491,-53.90122 -86.3394,-101.04461 -140.55,-133.07818 -61.9208,-36.58969 -127.0068,-56.175097 -200.8214,-60.430343 -50.8834,-2.933317 -105.7926,4.238367 -154.2309,20.144066 -95.6899,31.421757 -175.0872,91.394127 -230.0433,173.762007 -56.7487,85.05455 -81.7367,186.11197 -71.1144,287.60245 11.9506,114.18187 70.456,220.90021 161.2264,294.08996 84.6366,68.24402 196.566,103.5209 302.1397,95.22576 z m -129.5436,-23.83071 c -15.3513,-7.50697 -26.2716,-19.91004 -29.7083,-33.74212 -4.157,-16.73204 0.4279,-35.95145 12.1212,-50.8097 3.9247,-4.98704 3.9378,-5.05546 0.8226,-4.34558 -24.9883,5.69439 -42.5118,4.36196 -78.4983,-5.96873 -21.0256,-6.03584 -37.2184,-8.47747 -47.7903,-7.20607 -7.6878,0.92456 -24.6393,6.03858 -31.1434,9.39556 -1.9803,1.02206 -4.2303,1.85828 -5,1.85828 -1.7535,0 -1.822,-6.71546 -0.1147,-11.2067 2.1839,-5.744 12.9371,-15.09668 23.0572,-20.05418 19.7821,-9.69052 41.9043,-10.98796 70.3243,-4.12444 7.7,1.85958 21.2,4.07316 30,4.91907 13.839,1.33031 17.8008,1.22925 29.3333,-0.7482 28.2123,-4.83749 46.5256,-16.77417 53.4161,-34.8167 3.374,-8.83492 2.2308,-21.99423 -2.7766,-31.9612 -6.7998,-13.53439 -24.3658,-30.38748 -42.163,-40.45166 l -7.5233,-4.25445 -9.1433,8.88664 c -7.4063,7.19841 -17.8312,15.93505 -30.4766,25.54104 -2.5944,1.97087 -14.3596,8.58472 -21.7966,12.25308 -11.7876,5.81433 -31.6424,11.61307 -45.8302,13.38499 -14.7929,1.8475 -30.3732,0.80624 -30.3732,-2.02991 0,-0.98104 8.25,-8.00595 18.3334,-15.61092 32.1206,-24.22575 52.3437,-37.49199 71.8921,-47.16083 16.5971,-8.20908 19.0031,-10.14545 16.4412,-13.23229 -3.4363,-4.14038 -12.2977,-1.70188 -29.5625,8.13496 -23.9439,13.64227 -54.1372,36.90941 -79.7708,61.47163 -4.0334,3.86476 -8.0039,7.03432 -8.8235,7.04345 -2.83,0.0316 -26.2613,-8.15021 -33.0417,-11.53756 -10.43,-5.21061 -18.1298,-10.28461 -18.1324,-11.94891 0,-1.77229 30.2821,-24.7266 51.104,-38.73405 19.097,-12.84708 38.9017,-23.89912 51.4629,-28.71906 12.0492,-4.62347 16.0973,-7.08147 16.0973,-9.77419 0,-3.23421 -6.3152,-4.91621 -11.8586,-3.15849 -7.7247,2.44928 -29.4971,13.68194 -44.1827,22.79436 -12.7859,7.93365 -45.8585,33.55561 -60.6253,46.96742 -3.6667,3.33023 -7.5692,6.07119 -8.6724,6.09103 -5.6419,0.10146 -39.9943,-39.26516 -39.9943,-45.83204 0,-1.33664 8.7339,-6.38275 25,-14.44413 41.008,-20.32326 66.5996,-31.25263 86.7384,-37.04324 10.0853,-2.8999 12.4955,-5.14956 9.4493,-8.81995 -4.3266,-5.21333 -27.6616,1.79252 -63.1877,18.97088 -14.9759,7.24148 -45.6163,24.31008 -54.6741,30.45692 -7.7623,5.26755 -8.9836,4.67972 -14.3767,-6.91903 -8.1496,-17.52817 -16.9489,-44.17145 -16.9489,-51.32014 0,-1.21974 2.6816,-2.4038 7.6666,-3.3853 4.2167,-0.8302 17.5667,-3.56554 29.6667,-6.07856 25.7044,-5.33848 47.6284,-8.5183 65.2468,-9.4633 15.1739,-0.81391 18.3983,-2.71875 12.5256,-7.3996 -3.5433,-2.82426 -4.6225,-2.95871 -17.7724,-2.21436 -22.3815,1.26692 -53.3992,7.52418 -84.4933,17.04502 -7.238,2.21624 -13.6459,3.53154 -14.2396,2.92288 -1.4962,-1.53372 -3.9238,-29.09294 -3.9292,-44.60663 v -12.83334 l 4.1666,-0.83333 c 6.7326,-1.34649 39.0002,-0.94737 59.1667,0.73184 26.6244,2.21693 27.8543,2.19137 28.4049,-0.59033 0.3256,-1.64432 -0.9312,-2.94268 -4.1502,-4.28772 -7.3918,-3.08846 -37.7116,-4.9969 -63.2547,-3.98147 l -23,0.91432 v -3.80999 c 0,-5.65064 3.6057,-26.18413 6.9201,-39.47665 2.2998,-9.22336 3.4074,-11.66667 5.2891,-11.66667 3.5184,0 32.1744,12.56588 41.3056,18.11286 7.68,4.66529 11.8143,5.19117 11.8143,1.50277 0,-4.60868 -10.9447,-10.76228 -36,-20.24077 -9.1667,-3.46778 -16.9003,-6.52938 -17.1859,-6.80355 -1.2539,-1.20401 13.6405,-39.16961 18.9244,-48.23797 3.59,-6.16135 7.8516,-5.88115 10.1393,0.66667 5.5187,15.79514 35.878,73.60217 48.4875,92.32441 15.6077,23.17412 24.5315,34.1107 44.9621,55.10364 34.8363,35.79503 67.0014,54.54235 128.6726,74.99637 18.3333,6.08048 37.201,12.59898 41.9281,14.48557 12.7087,5.07192 26.1971,13.52359 33.5221,21.00445 6.3474,6.48227 15.8831,20.64708 15.8831,23.59329 0,4.00099 3.0237,0.024 12.2975,-16.17441 34.1237,-59.60416 59.0374,-125.00755 70.9786,-186.33333 19.075,-97.96193 10.1668,-193.14247 -26.8922,-287.33332 -8.9072,-22.63905 -25.5806,-57.43069 -39.6167,-82.66666 -5.7103,-10.26667 -10.696,-20.90222 -11.0793,-23.63456 -0.631,-4.49699 -0.342,-5.10289 3.0488,-6.39207 2.6604,-1.01145 5.7046,-1.00844 10.5046,0.0104 11.4484,2.42997 42.092,12.39224 42.092,13.6842 0,0.6716 -1.1529,5.82106 -2.5621,11.44324 -6.0761,24.24132 -6.3464,37.55545 -0.7627,37.55545 2.6534,0 2.7236,-0.29508 4.6032,-19.33333 2.0118,-20.37518 3.6846,-27.33333 6.5716,-27.33333 2.5498,0 34.505,12.88313 38.6691,15.58992 0.2856,0.18565 -3.7009,8.60386 -8.8589,18.70714 -16.821,32.94825 -23.009,54.3696 -15.706,54.3696 2.1897,0 3.4226,-2.63327 7.4912,-16 7.71,-25.33001 19.7324,-54 22.6442,-54 1.9258,0 19.739,9.71934 33.5768,18.32031 12.7354,7.91569 13.808,9.89822 8.1768,15.11394 -18.4417,17.0812 -53.8434,73.84343 -53.8434,86.33128 0,2.81785 0.3789,5.50224 0.842,5.96533 1.9464,1.94636 5.679,-2.14882 8.5237,-9.35158 5.4755,-13.86373 17.2959,-36.47461 25.2032,-48.21036 13.2384,-19.64793 26.6397,-36.16892 29.3392,-36.16892 1.37,0 5.5719,2.31512 9.3377,5.14472 11.9176,8.95465 34.6954,30.10772 34.661,32.18861 -0.019,1.1 -3.4143,4.7 -7.547,8 -27.6285,22.06164 -70.7157,71.49944 -78.452,90.01492 -2.1138,5.05912 -1.5246,10.01547 1.182,9.94268 2.8134,-0.0756 5.4643,-3.08981 12.8622,-14.62427 7.5353,-11.74885 23.0786,-33.20478 29.943,-41.33333 7.5556,-8.9472 46.2378,-46.84432 47.3854,-46.42376 2.1096,0.77318 15.4208,17.83808 22.2653,28.54418 12.0839,18.90115 16.3005,28.54625 12.4801,28.54625 -1.5162,0 -10.9701,5.87936 -30.6925,19.0879 -43.8631,29.37599 -84.9481,67.69275 -83.7365,78.09436 0.7198,6.18043 4.7158,5.06595 12.1718,-3.3948 16.4278,-18.64128 42.854,-43.70948 59.5647,-56.50348 3.3,-2.52654 6.6,-5.08708 7.3333,-5.69008 9.557,-7.85832 36.6446,-26.23305 38.6896,-26.24494 2.1579,-0.012 3.407,2.02706 6.3188,10.3177 4.6071,13.1173 8.6338,30.52487 9.6384,41.66667 0.4298,4.76667 1.0508,10.81467 1.3802,13.44 l 0.5988,4.77333 -14.9796,6.45068 c -31.9223,13.74679 -64.0174,31.35095 -88.1026,48.32429 -24.3502,17.16014 -33.3517,27.10828 -28.7198,31.74026 2.3573,2.35728 2.6641,2.16417 23.402,-14.72856 13.6929,-11.15415 15.3669,-12.37726 33.7742,-24.67844 19.7427,-13.19352 67.0411,-38.65489 71.8075,-38.65489 2.4916,0 2.6759,0.61976 2.0816,7 -2.1487,23.06954 -6.7644,41.74939 -14.6089,59.12259 l -4.2698,9.45592 -11.8385,3.58931 c -34.8192,10.55675 -65.5739,23.96444 -85.1589,37.12553 -10.158,6.82608 -17.2876,14.54719 -16.2662,17.61555 1.0916,3.27893 5.2182,1.72518 17.7111,-6.66863 18.0697,-12.1408 79.8411,-41.90694 86.9663,-41.90694 7.8306,0 -20.2707,32.07031 -41.0908,46.89414 -18.8387,13.41308 -41.1232,23.07785 -63.9467,27.73361 l -11.2799,2.30102 -2.8606,16.53561 c -11.6634,67.41936 -29.9287,128.8295 -50.5039,169.79981 -3.2953,6.56197 -5.8503,12.07228 -5.6775,12.2451 0.173,0.17284 4.504,-1.49237 9.6248,-3.70046 23.545,-10.1527 68.0955,-24.48816 113.3104,-36.46097 26.7302,-7.07807 61.8238,-18.47014 77.4035,-25.12666 57.3943,-24.5219 101.1301,-72.31218 142.1516,-155.32945 4.4684,-9.04285 8.9929,-16.7749 10.0547,-17.18232 4.4284,-1.69936 6.3398,5.22311 11.1569,40.40514 2.2305,16.29154 2.2897,16.17196 -10.1,20.42969 -16.4576,5.65565 -24.6667,10.4244 -24.6667,14.32905 0,3.02168 4.1915,2.04594 18.0424,-4.2002 15.1516,-6.83258 18.6174,-7.35926 19.7839,-3.00645 0.4423,1.65 0.8121,11.91557 0.8221,22.8124 l 0.019,19.8124 -10.3333,-0.59842 c -14.4046,-0.83418 -45.0666,1.24287 -48.3174,3.27303 -3.015,1.883 -3.5724,5.74055 -0.9733,6.73791 0.9403,0.36077 8.5903,-0.15463 17,-1.14534 8.4099,-0.99072 21.4407,-1.8217 28.9573,-1.84664 l 13.6663,-0.0453 -0.013,6.33333 c -0.013,6.34453 -1.9714,26.52979 -3.3668,34.66667 -0.8616,5.02434 -2.6846,5.38222 -11.4547,2.24884 -19.0048,-6.79008 -62.1583,-15.78404 -69.0853,-14.39863 -2.1703,0.43405 -4.9147,1.85964 -6.0987,3.16796 -1.9967,2.20625 -1.9317,2.53359 0.8952,4.51363 1.6763,1.17417 5.0873,2.13486 7.5801,2.13486 11.6332,0 44.0386,6.37551 71.8744,14.14079 1.6672,0.46508 3,1.88628 3,3.19889 0,3.04363 -6.0604,24.39663 -8.8912,31.32699 -6.2318,15.25678 -10.347,23.33333 -11.8889,23.33333 -0.9453,0 -7.0065,-3.33739 -13.4693,-7.41641 -24.838,-15.67812 -71.3996,-36.58359 -81.4782,-36.58359 -4.3224,0 -7.6334,2.92779 -6.5384,5.78151 0.3832,0.99851 7.4732,4.06651 15.7555,6.8178 25.7697,8.56045 80.0228,35.2889 80.9381,39.87526 0.7412,3.71426 -9.2048,17.0651 -23.2374,31.1921 -7.5438,7.59454 -14.674,13.66153 -16.0482,13.6551 -1.3601,-0.007 -4.5729,-1.98025 -7.1396,-4.38642 -26.1528,-24.51744 -59.4102,-49.58834 -80.8472,-60.94602 -10.814,-5.72945 -14.5154,-6.40752 -18.5646,-3.40076 -3.632,2.69711 -1.3991,5.81094 6.3498,8.85475 7.9219,3.11179 33.199,18.67399 48.5076,29.86447 23.4054,17.10909 43.2211,33.06262 43.2211,34.79702 0,4.28544 -29.8115,17.40246 -48.4729,21.32801 l -9.3879,1.97479 -18.0696,-17.98633 c -21.3061,-21.20793 -22.1872,-21.99484 -39.192,-35.00083 -25.6903,-19.64909 -40.5839,-27.20385 -45.5329,-23.09648 -3.6735,3.0487 -2.1044,5.06094 8.322,10.67263 20.1892,10.86621 41.0934,26.2166 69.3333,50.91279 7.5167,6.57344 13.6667,12.89974 13.6667,14.05846 0,1.84364 -1.8734,2.00479 -15,1.29037 -32.2359,-1.75444 -57.2494,-9.58697 -81.6667,-25.57254 -10.1193,-6.62496 -26.6113,-23.05301 -33.0921,-32.96387 -3.7594,-5.74901 -5.5398,-7.4088 -7.2759,-6.78305 -27.0845,9.76148 -56.8837,24.64943 -78.2987,39.11861 -28.2725,19.10263 -49.3808,46.61084 -46.7061,60.86751 2.0584,10.97237 13.3756,17.74525 31.312,18.73884 15.0719,0.83492 28.7956,-1.6708 63.5163,-11.59703 15.4672,-4.42188 35.2672,-9.26363 44,-10.75944 54.2924,-9.29956 97.7182,-1.23115 130.3588,24.22028 9.3152,7.26351 10.1857,8.35012 10.1857,12.71412 v 4.77181 l -6.1649,-0.69486 c -3.3907,-0.38219 -6.5534,-1.32343 -7.0282,-2.09166 -1.0677,-1.72752 -24.0689,-8.25748 -43.5684,-12.36892 -10.9446,-2.30764 -19.0525,-3.08617 -32.5718,-3.12761 -25.8987,-0.0795 -39.0496,3.52649 -77.0295,21.12079 -10.4663,4.8485 -19.2984,8.81546 -19.6272,8.81546 -0.3287,0 -3.7655,1.43795 -7.6372,3.19543 -9.5301,4.326 -31.4381,10.95458 -44.4092,13.43664 -13.8804,2.65608 -39.0287,2.65312 -49.2369,-0.005 -19.5664,-5.09641 -30.6782,-14.23961 -37.3976,-30.77235 l -2.8855,-7.09954 -8.5975,8.51346 c -9.7954,9.6997 -14.6776,18.37318 -15.5701,27.66186 -0.9169,9.54343 1.7376,16.81128 9.8229,26.89404 5.6002,6.98364 7.2344,10.05561 7.2344,13.59893 0,4.1255 -0.3689,4.57732 -3.7372,4.57732 -2.0554,0 -8.5054,-2.33173 -14.3333,-5.18164 z m 15.4039,0.60328 c 0,-1.05143 -3.0594,-5.70143 -6.7987,-10.33333 -7.4827,-9.26894 -8.7953,-11.94184 -10.6435,-21.67198 -0.9305,-4.89896 -0.7442,-8.55933 0.7275,-14.30437 2.5563,-9.978 6.5565,-16.17565 16.9479,-26.25717 8.4421,-8.19036 13.0885,-10.26493 13.1132,-5.85479 0.013,1.28334 1.4641,5.45008 3.2377,9.25944 13.8596,29.76789 51.7441,37.62117 104.0461,21.56828 7.3534,-2.25694 16.5375,-5.54148 20.4092,-7.29896 3.8718,-1.75748 7.3086,-3.19542 7.6372,-3.19542 0.3288,0 9.161,-3.96696 19.6272,-8.81547 38.9871,-18.06091 50.8295,-21.2022 79.6962,-21.14 16.3948,0.0353 23.6786,0.68269 35.2385,3.13189 18.3988,3.89822 42.4841,10.62946 43.4133,12.13295 0.3895,0.63023 2.3522,1.55848 4.3615,2.06279 6.7716,1.69956 4.0835,-2.9003 -6.5324,-11.17796 -19.0137,-14.82599 -41.9791,-23.84458 -68.5996,-26.93936 -26.8037,-3.11611 -56.1447,0.8209 -100.4259,13.47528 -32.5634,9.30574 -46.1321,11.93654 -61.5645,11.93654 -24.9695,0 -37.4511,-7.1402 -38.8665,-22.23401 -1.3698,-14.60575 10.4194,-33.10715 34.3089,-53.84254 8.5573,-7.42748 28.0737,-19.52758 48.1895,-29.87718 14.1109,-7.26014 43.8838,-19.3796 47.6082,-19.3796 1.8314,0 4.3516,2.44856 7.6775,7.45903 21.2177,31.96587 58.0263,52.68829 102.8435,57.89856 21.2858,2.47461 21.3592,2.3628 6.7516,-10.28572 -28.1244,-24.35251 -48.329,-39.1168 -68.0703,-49.74193 -9.6687,-5.20387 -10.3333,-5.84378 -10.3333,-9.94916 0,-6.12915 2.6252,-7.8275 11.002,-7.11768 8.1656,0.6919 20.495,7.80457 41.8756,24.15736 16.9516,12.96537 17.9109,13.82072 38.6949,34.5008 l 17.5725,17.48469 7.0942,-1.43247 c 10.062,-2.03174 28.4249,-8.92153 37.4157,-14.03837 l 7.6549,-4.35659 -14.9882,-11.61997 c -32.1063,-24.89103 -63.4147,-45.71384 -75.655,-50.31712 -6.861,-2.58031 -8,-3.82707 -8,-8.75777 0,-5.31363 2.7602,-7.21699 10.4656,-7.21699 13.2478,0 57.6263,30.47948 95.5344,65.61369 2.2,2.03902 4.5542,3.71008 5.2314,3.71347 3.5984,0.018 35.4353,-35.85052 35.4353,-39.92268 0,-1.24797 -28.1423,-16.1864 -46.6667,-24.77148 -9.1666,-4.24827 -23.8524,-10.17919 -32.6349,-13.17981 -13.9548,-4.76775 -16.1292,-5.91279 -17.2432,-9.08072 -1.9803,-5.63089 1.8624,-9.03913 10.1915,-9.03913 14.1357,0 58.4897,19.91995 91.2744,40.99238 2.7473,1.76585 3.0748,1.57408 5.5066,-3.22409 4.1771,-8.24175 9.206,-21.61273 12.7007,-33.76829 l 3.2583,-11.33334 -2.7459,-1.03812 c -13.0028,-4.9159 -60.1437,-14.29521 -71.8485,-14.29521 -8.8494,0 -13.654,-7.36183 -8.0908,-12.39653 3.8626,-3.49559 12.0473,-3.99471 26.3032,-1.60403 13.8736,2.32656 43.8848,9.70191 53.6157,13.17624 l 5.6204,2.00672 0.7291,-4.25787 c 1.0996,-6.42249 3.3401,-27.75788 3.3525,-31.92453 l 0.013,-3.66667 h -10.3414 c -5.6879,0 -18.1379,0.91951 -27.6667,2.04335 -9.5289,1.12385 -18.6352,1.72245 -20.2363,1.33024 -5.369,-1.31521 -5.6396,-9.13924 -0.4285,-12.39361 3.44,-2.1483 37.7937,-4.51668 49.6729,-3.42451 l 9,0.82747 -0.093,-17.85813 c -0.052,-9.82198 -0.5029,-18.88959 -1.0029,-20.15026 -0.8067,-2.03352 -2.6174,-1.53237 -16.049,4.4421 -17.5628,7.81209 -21.521,7.94045 -21.521,0.69794 0,-2.57308 1.005,-5.34416 2.3942,-6.60136 2.8418,-2.57174 17.1495,-9.04078 25.6058,-11.57721 3.3,-0.98983 6.5014,-2.22681 7.1144,-2.74885 0.6128,-0.52206 0.4486,-5.66772 -0.3648,-11.43483 -2.9582,-20.97097 -5.8294,-37.17691 -6.7771,-38.2508 -0.5332,-0.60415 -4.6232,6.29585 -9.0889,15.33333 -41.0166,83.00701 -84.7552,130.79889 -142.1468,155.31968 -15.5798,6.65652 -50.6734,18.04859 -77.4035,25.12665 -32.2121,8.52969 -58.7661,16.51463 -81.7748,24.59011 -21.1779,7.43286 -28.3797,10.2823 -41.2525,16.32165 -3.1318,1.46925 -6.5818,2.33073 -7.6667,1.91439 -2.1133,-0.81095 -2.7656,-4.84068 -0.7836,-4.84068 1.4341,0 15.7175,-28.70003 21.2376,-42.67379 15.318,-38.77581 29.1345,-90.39896 38.164,-142.59295 l 2.8717,-16.6001 8.6915,-1.6041 c 23.8313,-4.39836 49.7796,-15.80768 69.3413,-30.48899 10.8806,-8.16601 31.6216,-28.65281 34.5523,-34.12866 1.338,-2.50018 1.172,-2.49479 -5.6679,0.18404 -24.115,9.44465 -55.5177,25.3313 -72.4526,36.65382 -7.0758,4.73076 -14.3118,8.96449 -16.08,9.40828 -7.1388,1.79175 -9.5098,-6.30641 -4.1674,-14.23405 8.8468,-13.12775 52.7431,-34.78397 98.8256,-48.75567 l 11.8386,-3.5893 4.2853,-9.45592 c 5.3125,-11.72256 9.8317,-26.35328 12.1873,-39.45594 1.8992,-10.56389 2.3924,-19.99999 1.0452,-19.99999 -2.8704,0 -53.068,27.88089 -67.1949,37.32155 -18.4073,12.30119 -20.0813,13.5243 -33.7743,24.67844 -7.202,5.86667 -14.9378,12.01667 -17.1906,13.66667 -7.0842,5.18847 -13.0351,3.36253 -13.0351,-3.99955 0,-5.89313 3.3469,-11.02642 11.7475,-18.01744 24.6286,-20.49617 60.1249,-41.58626 99.5858,-59.16895 l 20,-8.91144 -0.2088,-10.54258 c -0.2238,-11.30612 -4.9024,-32.94404 -10.0806,-46.6232 l -3.128,-8.26317 -17.2914,12.51195 c -9.5101,6.88157 -17.8912,13.0053 -18.6245,13.60829 -0.7333,0.603 -4.0333,3.16353 -7.3333,5.69008 -16.701,12.78655 -43.1439,37.86859 -59.536,56.472 -6.3718,7.23129 -7.1824,7.7274 -11.9824,7.33333 -5.1027,-0.41891 -5.1519,-0.47712 -5.547,-6.5682 -0.3474,-5.35458 0.2415,-6.98484 4.5759,-12.66666 7.8241,-10.25643 14.7108,-17.22532 30.4895,-30.85378 22.2042,-19.17837 45.4348,-36.07416 72.9976,-53.09186 3.482,-2.14984 6.332,-4.32667 6.3333,-4.83738 0.013,-3.20381 -19.7905,-33.55289 -27.6204,-42.33857 l -5.2881,-5.9338 -19.9586,19.9338 c -10.9772,10.96359 -21.7325,22.0338 -23.9008,24.60047 -6.8585,8.1187 -22.4045,29.57742 -29.9444,41.33333 -8.5337,13.30559 -9.8798,14.56803 -15.5932,14.62427 -3.503,0.0345 -4.4646,-0.5821 -5.1468,-3.2997 -1.5622,-6.22446 0.9079,-12.75638 9.7287,-25.72696 16.4601,-24.20382 41.5809,-51.84773 67.328,-74.09054 l 8.9355,-7.71924 -8.6262,-8.06928 c -12.7417,-11.91668 -28.8241,-25.05188 -30.6754,-25.05188 -1.7772,0 -17.5424,20.16184 -28.255,36.13485 -7.1025,10.59019 -19.0704,33.70875 -24.2846,46.9111 -3.164,8.01127 -6.1671,10.74879 -11.0115,10.03777 -3.7973,-0.55736 -5.2941,-6.57106 -3.5665,-14.3298 3.5541,-15.96153 32.5861,-61.95359 51.5908,-81.72944 2.6298,-2.73655 4.5205,-5.21179 4.2014,-5.50056 -3.8597,-3.49369 -39.8594,-24.09862 -40.5906,-23.23257 -3.0339,3.59359 -14.913,33.87633 -20.5383,52.35734 -4.2959,14.11302 -5.2796,16.12788 -8.4116,17.22938 -13.6939,4.81585 -9.3497,-20.31619 10.1583,-58.7694 l 8.231,-16.22468 -7.381,-3.38645 c -4.0596,-1.86255 -11.6799,-5.13171 -16.934,-7.2648 l -9.5531,-3.87833 -1.3511,5.48946 c -0.7432,3.01921 -2.062,12.68947 -2.9309,21.48947 -0.8688,8.79999 -1.7931,16.74999 -2.054,17.66666 -0.2652,0.93196 -2.5645,1.66667 -5.2159,1.66667 -3.937,0 -4.984,-0.62206 -6.171,-3.66667 -1.66,-4.25796 -0.7452,-16.7318 2.2246,-30.33333 1.1208,-5.13333 2.3824,-10.94388 2.8036,-12.91233 0.758,-3.54355 0.5891,-3.63515 -17.0502,-9.24737 -20.5602,-6.54154 -31.3256,-7.62317 -30.8779,-3.10235 0.1492,1.50588 4.9077,11.10588 10.5747,21.33334 55.2354,99.68613 78.9832,189.84213 76.0181,288.59537 -2.7893,92.90354 -29.3524,182.84712 -80.6253,272.99999 -11.6904,20.55498 -14.9724,23.90704 -16.9712,17.33333 -1.7335,-5.70137 -10.0336,-18.16483 -16.4839,-24.75221 -7.3251,-7.48087 -20.8135,-15.93253 -33.5221,-21.00445 -4.7271,-1.88659 -23.5948,-8.4051 -41.9282,-14.48558 -61.6712,-20.45401 -93.8362,-39.20133 -128.6725,-74.99637 -20.4307,-20.99293 -29.3544,-31.92952 -44.9621,-55.10364 -12.5864,-18.68801 -40.409,-71.45626 -48.0595,-91.14967 l -2.522,-6.49192 -2.6092,4.49192 c -6.2903,10.8289 -18.4872,42.46797 -16.8887,43.80967 0.576,0.4835 7.9474,3.46622 16.3807,6.62828 28.1651,10.5604 35.1627,15.2041 34.4331,22.84996 -0.3863,4.04754 -0.9055,4.5828 -4.8098,4.95839 -3.1224,0.30037 -6.3704,-0.81749 -11.3333,-3.90065 -3.8261,-2.37692 -14.1567,-7.45487 -22.9567,-11.28432 l -16,-6.96263 -2.3409,8.19661 c -1.9196,6.72099 -7.6591,36.75079 -7.6591,40.07315 0,0.50248 9.75,0.51249 21.6667,0.0223 24.2732,-0.99863 57.2943,1.0742 64.3984,4.04248 5.4007,2.25654 7.4744,7.75736 4.1701,11.06161 -1.9032,1.90325 -3.8513,1.92691 -19.8394,0.24081 -9.751,-1.02832 -29.299,-1.87882 -43.4399,-1.89 -21.4167,-0.0169 -25.9227,0.3137 -26.9796,1.97967 -0.6979,1.1 -1.2759,5.9 -1.2847,10.66667 -0.016,8.83592 2.4882,38.95755 3.3071,39.77642 0.2481,0.24811 5.4499,-1.06247 11.5596,-2.91239 31.5577,-9.55529 61.5743,-15.34794 85.1084,-16.42441 15.7563,-0.72071 16.8669,-0.60259 20.3333,2.16245 4.1226,3.28847 4.7964,8.13382 1.5104,10.86095 -1.3597,1.12849 -6.6544,1.94041 -14.3333,2.19799 -16.1691,0.54233 -38.0067,3.64794 -64.8437,9.22165 -12.1,2.51301 -25.3656,5.23267 -29.4791,6.04368 l -7.4792,1.47457 2.4852,9.70106 c 4.4369,17.3198 16.8807,47.23132 19.6491,47.23132 0.622,0 2.562,-1.1146 4.3108,-2.4769 5.2905,-4.12094 38.2245,-22.50712 53.8465,-30.061 27.6105,-13.35085 45.5852,-19.8551 56.6667,-20.50526 8.9442,-0.52478 10.272,-0.28527 12.5765,2.2686 2.0516,2.27354 2.3213,3.59416 1.3243,6.4816 -1.0524,3.0472 -2.8479,4.11873 -11.2432,6.70997 -12.848,3.96551 -33.2571,11.89968 -49.3243,19.17504 -20.2969,9.19065 -59.6595,28.77825 -60.4712,30.0917 -1.5256,2.46854 12.4036,20.34695 26.4395,33.93532 4.3825,4.24284 8.2825,7.70488 8.6666,7.69343 0.3842,-0.012 3.3984,-2.44708 6.6984,-5.41251 14.9264,-13.41305 47.6036,-38.66146 59.9587,-46.32786 16.9609,-10.52428 37.4408,-20.89037 45.5571,-23.05913 4.2804,-1.14378 7.562,-1.25876 10.6666,-0.37378 3.7732,1.07552 4.5516,1.97252 4.9086,5.6566 0.2334,2.40811 -0.2715,5.21671 -1.1218,6.24134 -0.8504,1.02462 -6.4413,3.73373 -12.4244,6.02024 -13.2597,5.06746 -32.8282,15.77958 -51.5448,28.21651 -20.9694,13.93402 -50.6105,36.21247 -50.173,37.71048 1.1016,3.77158 40.4792,20.65243 44.6713,19.15018 0.7181,-0.25735 4.1999,-3.17855 7.7371,-6.49155 27.3752,-25.63981 55.38,-47.12509 78.8688,-60.50807 13.4713,-7.6755 20.136,-10.13495 27.4634,-10.13495 6.4592,0 8.7658,1.78142 8.7658,6.77007 0,4.59847 -1.313,5.60346 -18.4048,14.08843 -18.5908,9.22912 -39.1795,22.71893 -69.8448,45.76285 l -16.9163,12.71198 4.2496,1.14573 c 10.4364,2.81372 45.4223,-4.77188 63.7863,-13.83011 7.437,-3.66836 19.2022,-10.28221 21.7966,-12.25308 13.5854,-10.31994 23.1676,-18.41038 31.2596,-26.39278 l 9.9264,-9.7918 8.606,4.56102 c 18.7728,9.9491 37.6579,27.60092 44.8747,41.94434 3.4419,6.84072 4.0624,9.71742 4.4468,20.61668 0.4295,12.17276 0.2728,13.003 -4.0195,21.29217 -14.8561,28.68996 -60.7568,38.99781 -115.7606,25.99621 -19.8406,-4.68981 -31.6966,-5.42955 -44.6667,-2.78684 -20.3601,4.14844 -40.5023,17.25613 -43.9684,28.61289 -0.8309,2.72244 -0.6411,2.94967 1.5089,1.80534 1.3527,-0.72002 6.9742,-2.82184 12.4922,-4.67075 20.4178,-6.84141 39.0881,-6.04085 70.634,3.02872 20.843,5.99249 37.6782,9.39119 46.4806,9.38356 5.655,-0.005 27.3083,-3.05648 34.5194,-4.86476 4.4009,-1.10363 3.7824,1.59151 -2.1768,9.48451 -7.2234,9.56721 -11.6592,18.81702 -13.653,28.47 -4.2957,20.79774 7.5119,41.35841 30.0926,52.40063 11.79,5.76543 12.7372,6.00862 12.7372,3.26995 z m 177.1841,-262.75448 c -6.5817,-3.57708 -9.4135,-17.04187 -9.3325,-44.37584 0.083,-28.17411 4.882,-45.38444 18.3641,-65.8628 6.2656,-9.51705 24.72,-27.76184 28.0809,-27.76184 5.2651,0 -4.0265,109.44662 -11.2912,133 l -2.159,7 -10.0899,-0.0533 c -6.0936,-0.0323 -11.4692,-0.80305 -13.5724,-1.94613 z m 23.15,-7.66715 c 4.9569,-16.10604 9.8936,-59.57941 12.3501,-108.75946 0.9638,-19.29299 1.1466,-19.21303 -12.1794,-5.33103 -13.6774,14.2482 -22.1208,29.6734 -27.1704,49.6371 -4.351,17.20118 -3.5143,50.55355 1.6013,63.84059 1.9581,5.08605 7.0019,7.496 15.8208,7.55941 l 7.4232,0.0533 2.1544,-7 z M 3060,660.13259 c 0,-1.39373 1.1674,-10.54373 2.5942,-20.33333 4.0709,-27.93087 5.7857,-61.1362 4.7408,-91.79928 l -0.9314,-27.33333 11.1315,-5.52271 c 10.7852,-5.35088 29.11,-12.47729 32.084,-12.47729 1.0364,0 1.1987,6.67525 0.5589,23 -1.5256,38.93628 -6.6457,87.5388 -12.0361,114.25094 -2.7088,13.42363 -2.9505,13.95651 -6.8085,15.0136 -18.1058,4.96092 -28.8639,7.73546 -29.994,7.73546 -0.7367,0 -1.3394,-1.14032 -1.3394,-2.53406 z m 22.1958,-6.05081 10.4709,-3.00637 2.8085,-13.87106 c 3.3368,-16.48045 6.5127,-40.77072 9.1452,-69.94781 2.3882,-26.46629 4.0418,-60.58989 2.9364,-60.58989 -2.0774,0 -19.7324,7.23749 -28.5736,11.71353 l -9.7836,4.95314 0.9027,26.66666 c 1.158,34.20635 -2.0953,84.53441 -6.8348,105.73507 -0.638,2.85396 -0.3664,3.00846 3.8857,2.21076 2.5144,-0.47172 9.2836,-2.21052 15.0426,-3.86403 z m 26.3457,-9.0818 c 5.0959,-25.24379 9.2541,-82.46153 8.5996,-118.33333 l -0.4744,-26 8.6667,-1.52275 c 4.7666,-0.83752 14.3109,-1.58752 21.2093,-1.66666 l 12.5428,-0.14392 -0.8675,21.66666 c -0.9894,24.71595 -5.0394,65.53348 -9.029,91 -1.4936,9.53333 -3.0531,19.59796 -3.4655,22.36584 -0.4125,2.76788 -1.3225,5.38639 -2.0224,5.81892 -2.3041,1.424 -31.9921,11.14857 -34.0353,11.14857 -1.5459,0 -1.8008,-0.98232 -1.1243,-4.33333 z m 32.6459,-9.57643 c 0.6157,-0.38054 1.4569,-2.95652 1.8694,-5.7244 0.4124,-2.76788 1.9723,-12.8325 3.4662,-22.36584 3.6476,-23.27764 7.8994,-65.03294 8.9946,-88.33333 l 0.8931,-19 -9.872,0.14392 c -5.4296,0.0792 -13.772,0.82915 -18.5387,1.66667 l -8.6666,1.52275 0.4442,26.66666 c 0.2443,14.66667 -0.2424,37.16667 -1.0816,50 -1.4593,22.31895 -6.0505,63.21031 -7.3294,65.27961 -0.5623,0.90979 27.3029,-8.29992 29.8208,-9.85604 z m -333.6616,-6.42357 c -2.5875,-31.76208 -2.2471,-62.63788 1.3533,-122.72514 1.0613,-17.7145 2.3919,-18.08534 10.5533,-2.94152 12.0812,22.41698 16.978,51.27237 14.1042,83.11109 -1.8859,20.89213 -6.2848,44.82789 -9.0462,49.22224 -1.5732,2.50344 -3.068,3 -9.0312,3 h -7.1458 z m 14.298,4 c 2.6254,-4.17812 7.0517,-27.77432 8.9709,-47.82395 2.7067,-28.27459 -2.1101,-56.6525 -13.2044,-77.79173 l -4.9236,-9.38162 -0.896,9.99865 c -2.472,27.58581 -3.8016,82.99246 -2.4956,103.99865 0.7523,12.1 1.3731,22.45 1.3797,23 0,0.55 2.098,1 4.6478,1 3.3602,0 5.1548,-0.82556 6.5212,-3 z m -42.4615,-3.45288 -10.6377,-3.54712 -1.5924,-7.18123 c -4.5687,-20.60246 -8.1403,-96.03745 -6.5254,-137.81877 0.8995,-23.27053 1.2762,-26.33333 3.2379,-26.33333 2.4593,0 20.4207,9.91759 26.2133,14.47408 2.0324,1.59864 6.2094,5.22408 9.2822,8.05655 l 5.587,5.14993 -3.0556,27.15972 c -4.4966,39.96851 -6.2928,71.82885 -5.6024,99.38024 l 0.6126,24.44614 -3.441,-0.1196 c -1.8924,-0.0657 -8.2277,-1.71576 -14.0785,-3.66666 z m 14.1921,-24.54576 c -0.4916,-28.32084 1.0823,-56.54764 5.2971,-95.00136 l 2.7767,-25.33333 -7.9718,-7.33333 c -7.3449,-6.75671 -27.6953,-19.73885 -28.9598,-18.47433 -0.3,0.30001 -0.9492,13.42946 -1.4426,29.17657 -1.3077,41.73678 2.0704,107.93966 6.5352,128.07373 l 1.602,7.22402 10.6378,3.54712 c 5.8508,1.95091 10.9377,3.60152 11.3044,3.66803 0.3666,0.0665 0.4661,-11.42971 0.221,-25.54712 z m 362.4695,25.99864 c 0.013,-0.55 0.9143,-6.7 2.0024,-13.66667 3.4047,-21.79725 6.03,-55.44642 6.8919,-88.33333 l 0.8298,-31.66666 h 6.2519 c 3.4387,0 12.7336,-0.39659 20.6557,-0.88131 l 14.4038,-0.88129 -0.9215,14.54796 c -1.6872,26.63552 -9.6333,91.28334 -12.2293,99.4939 -0.8454,2.67391 -15.0399,12.30493 -26.8706,18.23169 -8.3988,4.20754 -11.0574,4.9693 -11.0141,3.15571 z m 18.2109,-11.24625 c 16.1259,-9.18515 17.0107,-10.38607 19.5135,-26.48799 4.8155,-30.98069 11.3039,-92.65809 9.8956,-94.06637 -0.3103,-0.31025 -8.3659,-0.16925 -17.9015,0.31336 l -17.3373,0.87747 -0.8251,31.47156 c -0.8078,30.81798 -3.5454,67.55433 -6.2202,83.47155 -0.7394,4.4 -1.3478,8.81419 -1.352,9.80932 -0.013,2.3136 2.1216,1.50624 14.227,-5.3889 z m -436.5681,-6.3851 c -7.5167,-3.58616 -13.6729,-7.01117 -13.6805,-7.61113 -0.013,-0.59997 -1.2119,-7.93837 -2.6763,-16.30755 -5.4024,-30.87579 -11.2112,-88.37149 -12.8427,-127.11663 l -0.8841,-21 h 4.7279 c 6.3544,0 24.4908,3.51076 35.1598,6.80608 l 8.67,2.67789 -0.737,5.92468 c -1.7266,13.87816 -2.0898,18.61176 -3.4284,44.6762 -1.3326,25.9462 -0.4948,66.04639 2.2056,105.58181 0.7304,10.69313 0.5565,12.99015 -0.9799,12.94448 -1.0272,-0.0305 -8.0177,-2.98967 -15.5344,-6.57583 z m 12.912,-18.87417 c -2.134,-28.3347 -2.1637,-92.0568 -0.055,-118.29017 1.0558,-13.13593 1.2684,-22.27905 0.5352,-23.01226 -1.5318,-1.53186 -24.015,-7.23891 -33.6025,-8.52954 l -7.2107,-0.97066 0.9202,18.48741 c 2.0004,40.19588 6.9038,88.57561 12.2445,120.80939 1.7911,10.81043 3.2565,19.99576 3.2565,20.41184 0,0.90894 24.4128,12.63119 25.0268,12.01712 0.2358,-0.23576 -0.2658,-9.65116 -1.1148,-20.92313 z m 453.9444,2.26952 c 1.6929,-6.74524 4.8685,-38.36982 6.2355,-62.09733 2.3061,-40.03191 2.0278,-38.473 6.9986,-39.20219 13.4304,-1.97017 31.8123,-3.67274 32.477,-3.00808 1.1237,1.12364 -2.9262,33.22684 -6.9182,54.84103 -3.9113,21.17732 -3.5672,20.55763 -22.2856,40.13738 -12.2142,12.77636 -18.225,16.17342 -16.5073,9.32919 z m 22.8296,-21.75812 9.6893,-10.99413 2.8174,-15.00587 c 2.6082,-13.89297 5.454,-32.54872 7.3385,-48.10933 l 0.7795,-6.43679 -3.6554,0.77859 c -2.0104,0.42823 -8.9336,1.30307 -15.3849,1.94411 -6.4512,0.64104 -12.0723,1.50828 -12.4912,1.92721 -0.4189,0.41893 -1.2799,10.84064 -1.9131,23.15935 -1.1793,22.93969 -4.765,63.76298 -6.1249,69.73098 -0.726,3.1866 -0.5391,3.12789 4.2479,-1.33333 2.7541,-2.56667 9.3677,-9.61403 14.6969,-15.66079 z m -527.9344,15.97897 c -16.1008,-10.99946 -17.1309,-12.41233 -21.134,-28.98485 -3.8801,-16.06401 -7.708,-37.28544 -10.8228,-60 -2.3349,-17.02685 -7.4615,-60.0765 -7.4615,-62.65637 0,-1.38004 2.942,-1.63117 13.6667,-1.16664 7.5167,0.32559 16.8167,0.91214 20.6667,1.30343 l 7,0.71147 0.013,14.90406 c 0.021,36.86425 4.1215,97.27683 8.6961,128.1389 1.079,7.27916 1.9618,13.42916 1.9618,13.66667 0,1.68385 -4.6728,-0.51356 -12.5818,-5.91667 z m 6.6343,-15.0895 c -4.1206,-32.43867 -7.3618,-84.37228 -7.3784,-118.22868 0,-8.25 -0.4575,-15.05978 -1.0075,-15.13286 -0.55,-0.0731 -8.6656,-0.52308 -18.0345,-1 l -17.0347,-0.86714 0.6516,3.33334 c 0.3584,1.83333 1.3027,9.33333 2.0984,16.66666 4.2136,38.83531 10.0199,75.55011 15.6035,98.66667 2.9756,12.31918 4.2218,15.31935 7.7866,18.74457 4.1758,4.01241 18.284,13.97321 18.9227,13.35998 0.1797,-0.17262 -0.5437,-7.16677 -1.6077,-15.54254 z m -46.8443,-18.89535 c -12.6996,-13.77146 -20.5196,-23.4333 -21.9117,-27.0725 -4.4604,-11.65978 -18.6299,-81.82667 -18.6299,-92.25509 v -3.37355 L 2629,435.1782 c 5.6834,0.48364 13.7252,1.23733 17.871,1.67485 l 7.5376,0.79551 0.8954,12.17571 c 1.7308,23.53603 6.1359,64.41319 9.399,87.21823 1.8134,12.67339 3.297,23.62339 3.297,24.33334 0,2.88921 -3.867,0.96446 -8.7917,-4.37586 z m 2.2079,-21.83126 c -2.7216,-18.69544 -7.1218,-60.15438 -8.7914,-82.8354 -0.7488,-10.17127 -1.2921,-12.33739 -3.0997,-12.35644 -1.2055,-0.0133 -7.8368,-0.61764 -14.7363,-1.34431 -6.8996,-0.72665 -12.7548,-1.11106 -13.0116,-0.85422 -0.8889,0.88892 7.7714,48.29925 12.2182,66.8883 6.4049,26.77431 4.4104,23.10803 25.9738,47.74459 1.8166,2.07528 3.4912,3.20765 3.7216,2.51638 0.2304,-0.69125 -0.7932,-9.58276 -2.2746,-19.7589 z m 591.0216,2.99326 c 0.4401,-3.21089 1.4676,-14.16089 2.2832,-24.33333 2.063,-25.72903 1.2932,-23.77577 10.1517,-25.75821 4.1791,-0.93523 10.242,-2.83368 13.4733,-4.21878 6.5626,-2.81301 9.654,-3.18552 9.654,-1.16322 0,1.62306 -10.3434,23.26464 -15.6024,32.64488 -16.2797,29.03756 -21.6533,35.18348 -19.9598,22.82866 z m 13.5613,-18.82866 c 8.2539,-14.70302 16.7768,-31.6686 16.1993,-32.2461 -0.3368,-0.33669 -3.2369,0.27898 -6.445,1.36814 -3.208,1.08917 -8.0706,2.4001 -10.8055,2.91318 -5.7336,1.07563 -5.7623,1.15282 -6.9171,18.63144 -0.4361,6.6 -1.1317,15 -1.5458,18.66667 l -0.753,6.66667 3.2623,-4.66667 c 1.7943,-2.56667 4.9464,-7.66667 7.0048,-11.33333 z m -353.3324,-5.62951 c -37.8029,-5.32353 -74.5376,-23.24779 -100.1635,-48.87369 -10.8832,-10.88315 -27.1698,-32.88336 -27.1698,-36.70124 0,-1.96192 2.4385,-1.84205 10.1802,0.50043 52.5955,15.91424 94.1556,31.77424 135.4864,51.70379 14.9748,7.2208 19.6667,10.07996 19.6667,11.98462 0,5.76972 -3.2537,14.69534 -6.7031,18.38786 -3.5992,3.85299 -4.0221,3.95562 -15.4985,3.7613 -6.4891,-0.10987 -13.5984,-0.45327 -15.7984,-0.76307 z m 26.8628,-3.65768 c 2.898,-2.02983 6.2217,-8.21467 7.6059,-14.15325 0.7681,-3.29548 -0.025,-3.83935 -18.8334,-12.90838 -34.7193,-16.74127 -80.7561,-34.88525 -115.6353,-45.57401 -7.3333,-2.2473 -15.0937,-4.6736 -17.2455,-5.39174 -2.1516,-0.71815 -4.0841,-1.13366 -4.2944,-0.92336 -1.2834,1.28352 13.8428,20.79932 24.0802,31.06806 17.0621,17.11425 39.3765,31.10921 63.3113,39.70708 23.6756,8.50473 54.6211,12.65145 61.0112,8.1756 z m -322.5545,-5.71281 c -15.3004,-23.35359 -21.6854,-34.34774 -34.1752,-58.84584 -8.9723,-17.59828 -9.8554,-20.96845 -5.1331,-19.58851 6.5839,1.92392 31.1368,7.41094 33.2128,7.42227 2.4264,0.0133 2.94,2.44472 7.8775,37.29468 2.4848,17.53784 5.1292,31.78408 7.3724,39.7174 1.7633,6.23597 -3.3211,2.9035 -9.1544,-6 z m 3.0269,-6.36948 c -0.65,-2.91346 -2.4105,-13.99719 -3.9127,-24.63052 -4.9192,-34.82508 -5.4478,-37.33189 -7.8764,-37.34817 -1.217,-0.008 -8.3226,-1.3952 -15.7902,-3.08234 l -13.5776,-3.06749 7.9385,15.41567 c 11.2359,21.81841 33.1371,59.27294 34.0976,58.31231 0.1663,-0.16626 -0.2293,-2.68602 -0.8792,-5.59946 z M 2940,473.81918 c -5.5,-2.58846 -14.5,-6.50503 -20,-8.70353 -5.5,-2.19848 -11.8,-4.79125 -14,-5.76173 -8.7693,-3.8684 -38.4234,-14.66293 -57.3333,-20.87027 -32.0909,-10.53408 -39.176,-12.69414 -54.2649,-16.54406 l -14.265,-3.63968 -3.399,-9.4833 c -1.8696,-5.21581 -4.2762,-13.38329 -5.348,-18.14996 -2.4999,-11.1165 -4.1458,-30.66771 -2.5815,-30.6633 0.6555,10e-4 6.7895,1.50305 13.6313,3.33601 42.3247,11.33909 124.0502,44.12531 170.5931,68.43768 l 5.6993,2.97712 -0.8618,8.95625 c -2.4848,25.82292 -3.9227,34.26196 -5.8848,34.53687 -1.0919,0.153 -6.4854,-1.83964 -11.9854,-4.4281 z m 13.2215,-15.48586 c 0.8916,-8.98333 1.8291,-17.39785 2.0833,-18.69895 0.528,-2.70125 -0.8625,-3.50493 -30.6381,-17.70754 -28.882,-13.77638 -65.7743,-29.08138 -96.4152,-39.99848 -9.3049,-3.3153 -18.2959,-6.60522 -19.9799,-7.31095 -3.9253,-1.64511 -34.7608,-10.61741 -36.4892,-10.61741 -2.8144,0 1.942,26.30305 7.622,42.14996 l 3.3991,9.48329 14.2649,3.63968 c 15.089,3.84992 22.174,6.00999 54.265,16.54407 18.9098,6.20733 48.564,17.00186 57.3333,20.87026 2.2,0.97048 8.5,3.56407 14,5.76352 5.5,2.19947 13.9,5.82028 18.6667,8.04627 4.7666,2.22598 9.0268,4.07477 9.4669,4.10842 0.4401,0.0336 1.5296,-7.28881 2.4212,-16.27214 z m -14.1923,-45.06043 c -14.586,-7.00637 -35.3616,-15.60289 -71.6958,-29.6663 -20.6376,-7.98792 -68.662,-23.54887 -84.3318,-27.32529 -17.3034,-4.17016 -16.1934,-2.29146 -13.1644,-22.28131 2.5491,-16.82276 7.4188,-34.05404 9.8924,-35.0032 2.3892,-0.91684 32.4536,8.97361 43.6038,14.34455 1.4666,0.70648 9.2666,3.935 17.3333,7.17448 8.0667,3.23948 17.6667,7.22264 21.3333,8.85148 3.6667,1.62882 9.3667,4.15777 12.6667,5.61986 23.5461,10.43235 54.1709,25.5205 76,37.44359 l 8.6667,4.73374 0.3656,22.08442 c 0.3381,20.43166 0.1885,22.07585 -2,21.97005 -1.3011,-0.0629 -9.7026,-3.63864 -18.6698,-7.94607 z m 18.0075,-14.69112 -0.37,-18.75154 -8.6667,-4.73328 c -21.8422,-11.92908 -52.4574,-27.01241 -76,-37.44312 -3.3,-1.46209 -9,-3.99104 -12.6666,-5.61987 -3.6667,-1.62884 -13.2667,-5.612 -21.3334,-8.85148 -8.0666,-3.23948 -15.8666,-6.4684 -17.3333,-7.17538 -3.2361,-1.5599 -6.5257,-2.79875 -25.0499,-9.43356 l -14.3832,-5.15166 -1.2645,3.326 c -3.4713,9.13036 -10.4593,44.29895 -8.9844,45.21598 0.1917,0.1192 7.0569,1.83956 15.256,3.82294 15.6419,3.78388 63.2916,19.23096 83.7593,27.15312 35.4044,13.70352 56.5494,22.42055 70.1596,28.92349 8.3456,3.98744 15.6403,7.2994 16.2104,7.35991 0.5702,0.0605 0.8702,-8.3282 0.6667,-18.64155 z m -16.37,-42.63805 c -13.0711,-6.8196 -45.3707,-21.33478 -78.1492,-35.11965 -15.1192,-6.35829 -47.5885,-18.10416 -65.4919,-23.69189 -12.1834,-3.80258 -14.3114,-4.88004 -14.3333,-7.25767 -0.025,-2.808 13.4005,-30.14218 16.6388,-33.87452 0.9544,-1.1 3.664,-5.3 6.0212,-9.33333 2.3573,-4.03333 5.9687,-9.13333 8.0253,-11.33333 3.1106,-3.32746 14.9182,-17.09856 26.677,-31.11327 1.4366,-1.71229 2.6121,-3.73729 2.6121,-4.5 0,-2.83881 9.0095,0.56837 31.9179,12.07056 24.3746,12.23841 46.5146,25.04412 58.298,33.7194 5.6245,4.14099 7.1217,6.111 8.192,10.77855 0.7202,3.14128 3.1714,12.91142 5.4472,21.71142 4.6721,18.06641 4.9501,20.66667 2.2096,20.66667 -1.0644,0 -11.4144,-4.76176 -23,-10.5817 -28.3183,-14.22545 -53.5642,-25.12981 -86.398,-37.31747 -26.1303,-9.69939 -25.3222,-9.4924 -26.9411,-6.90023 -1.1793,1.88859 -0.4372,2.62437 4.7723,4.73119 29.4452,11.90831 58.9848,25.31701 92.8354,42.14019 22,10.93362 40.9972,20.66782 42.216,21.63155 4.1083,3.24845 8.6335,51.89445 4.784,51.42772 -0.9166,-0.11107 -8.2666,-3.64552 -16.3333,-7.85419 z M 2956,355.05376 c 0,-1.98709 -0.9528,-11.40954 -2.1173,-20.93877 -1.5527,-12.70601 -2.7081,-17.79312 -4.3333,-19.07813 -4.5964,-3.63444 -83.1475,-41.90283 -104.8827,-51.09655 -12.4667,-5.27326 -25.2929,-10.71708 -28.5028,-12.09737 -3.2099,-1.38028 -6.2601,-2.50961 -6.7784,-2.50961 -1.6707,0 -10.3372,13.63953 -17.2497,27.14778 l -6.7282,13.14779 24.963,8.37614 c 41.8564,14.04471 94.316,35.70112 130.2961,53.78895 7.3333,3.6866 13.7833,6.74109 14.3333,6.78779 0.55,0.0467 1,-1.54092 1,-3.52802 z m -12.7064,-76.7274 c -1.98,-7.51284 -4.184,-16.22985 -4.8977,-19.37113 -1.0617,-4.67361 -2.5483,-6.633 -8.18,-10.78304 -13.7395,-10.12441 -49.2988,-30.14901 -72.5964,-40.88134 l -11.0473,-5.08904 -3.6194,4.34236 c -1.9906,2.38829 -8.5694,10.13396 -14.6194,17.21258 -6.05,7.07862 -11,13.56411 -11,14.41219 0,0.84808 1.65,1.95097 3.6666,2.45087 16.2756,4.03446 78.4207,29.9797 108.3334,45.22861 9.1666,4.67298 16.8677,7.96564 17.1134,7.317 0.2458,-0.64864 -1.1732,-7.32622 -3.1532,-14.83906 z m -18.6269,-48.53743 c -3.5221,-2.80838 -53.34,-27.05338 -65.6503,-31.95022 -5.3076,-2.11129 -9.6576,-4.50613 -9.6666,-5.32185 -0.025,-2.29463 18.3082,-37.06954 19.8068,-37.56904 3.1469,-1.04896 44.7738,27.07293 46.9357,31.70829 3.8416,8.23696 15.9077,40.829 15.9077,42.96871 0,2.95453 -3.729,3.03797 -7.3333,0.16411 z m -0.7057,-13.89504 c -10.4384,-28.31028 -10.9919,-29.22719 -22.2982,-36.94311 -12.1032,-8.25967 -31.3846,-20.37723 -31.711,-19.92889 -1.1082,1.52257 -16.5007,32.19938 -16.2636,32.41272 0.1716,0.15426 9.3118,4.28092 20.3118,9.17034 11,4.88943 27.2,12.66946 36,17.28896 8.8,4.6195 16.435,8.48316 16.9664,8.58592 0.5316,0.1028 -0.8209,-4.66092 -3.0054,-10.58594 z M 2900.6,165.46141 c -0.6966,-0.66288 -7.2666,-4.30194 -14.6,-8.08678 -7.3333,-3.78482 -13.8666,-7.40578 -14.5185,-8.04655 -0.6887,-0.67702 -0.083,-3.57294 1.4459,-6.91323 1.4469,-3.16151 4.0034,-9.49819 5.681,-14.08152 1.6775,-4.58333 3.777,-8.33333 4.6652,-8.33333 1.7403,0 22.0598,41.03293 22.0598,44.54714 0,2.31132 -2.7142,2.83557 -4.7334,0.91427 z m -0.9273,-6.46142 c -0.2667,-0.55 -4.0304,-8.36195 -8.364,-17.35991 l -7.8792,-16.35991 -3.7281,9.69324 c -2.0506,5.33129 -3.8722,10.39708 -4.0482,11.25732 -0.1758,0.86024 4.7802,4.2664 11.0135,7.56927 11.4071,6.04426 13.898,7.04018 13.006,5.19999 z M 719.54997,808.33331 c -0.91499,-1.50638 -7.22219,-41.88799 -8.79868,-56.33333 -7.30232,-66.9106 -5.08767,-152.5086 7.96738,-307.94477 2.18398,-26.00294 4.51388,-47.8211 5.17755,-48.48477 0.66367,-0.66367 7.73168,-0.98333 15.70668,-0.71037 13.10719,0.44864 15.33935,0.9095 23.23799,4.798 4.80589,2.36593 11.62586,6.8437 15.1555,9.95062 l 6.41754,5.64894 -0.86986,35.37118 c -0.47841,19.45415 -2.72372,63.87117 -4.98958,98.70451 -6.58375,101.21277 -6.72967,164.41964 -0.48318,209.27911 1.55594,11.17397 1.60932,14.24689 0.26863,15.46083 -0.92029,0.83328 -8.03517,3.74156 -15.81083,6.46285 -12.96857,4.53868 -15.13624,5.8183 -26.21534,15.47558 -6.64279,5.79028 -12.4663,11.1564 -12.94114,11.9247 -1.00693,1.62925 -2.95148,1.83116 -3.82266,0.39692 z m 10.92976,-12.55434 c 12.07777,-11.0618 16.69289,-13.86078 31.62802,-19.1819 l 14.10846,-5.02657 -0.74486,-4.1186 c -6.99613,-38.68459 -7.32418,-112.96628 -0.92794,-210.11858 2.38989,-36.3 4.7453,-82.73279 5.23426,-103.18397 l 0.889,-37.18396 -5.33333,-4.63976 c -12.10035,-10.52674 -32.18547,-16.80019 -44.66209,-13.94991 l -4.66208,1.06505 -2.27879,26.61294 c -11.37497,132.84381 -15.71921,223.18382 -13.17781,274.03669 0.82212,16.45027 2.37966,38.00958 3.46122,47.90958 2.20119,20.14834 7.48668,54.66666 8.37064,54.66666 0.31626,0 3.95915,-3.09945 8.0953,-6.88767 z m 283.74247,11.33211 c -0.4889,-0.48888 -0.8889,-9.48888 -0.8889,-20 0,-10.5111 -0.2607,-19.1111 -0.5795,-19.1111 -0.3187,0 -4.9052,0.90996 -10.1923,2.02213 -5.2871,1.11217 -23.77633,3.86176 -41.08718,6.1102 -36.40454,4.72845 -52.27507,4.69291 -66.80764,-0.14964 -28.61822,-9.53616 -51.11547,-34.79329 -63.28655,-71.05035 -11.75664,-35.02239 -9.47182,-85.32503 5.41048,-119.11723 21.13029,-47.97909 79.79825,-83.77493 144.34621,-88.07181 l 12.47016,-0.83014 -0.78478,-4.90774 c -1.76352,-11.02843 -4.74936,-48.80085 -5.59042,-70.72152 l -0.89714,-23.38279 4.69252,-4.12008 c 14.66904,-12.87954 38.94664,-10.70889 56.02444,5.00912 l 6.3848,5.87652 8.5303,84 c 13.4963,132.90228 15.4512,160.02392 15.5302,215.46145 0.051,36.01418 -0.8856,66.1832 -2.2632,72.87188 -0.3398,1.65 -1.4073,3 -2.3722,3 -7.3909,0 -32.11,11.22065 -47.2345,21.44095 -10.6179,7.17494 -10.1384,6.93655 -11.4048,5.67015 z m 13.4029,-11.60232 c 12.7651,-8.22323 19.4117,-11.43049 32.3749,-15.6222 l 11.3333,-3.6647 1.1534,-8.44427 c 0.6344,-4.64436 1.2066,-31.24428 1.2716,-59.11095 0.1392,-59.67939 -0.9797,-76.73842 -12.5498,-191.33332 -4.4055,-43.63334 -8.6941,-86.21695 -9.5302,-94.63025 l -1.5203,-15.29692 -5.7456,-5.58412 c -14.0631,-13.66775 -34.291,-16.89338 -47.5539,-7.58316 l -5.52516,3.87852 -0.43149,11.9413 c -0.52649,14.57028 1.84652,53.17043 4.53623,73.78765 1.08918,8.34883 1.81118,15.33099 1.60446,15.5159 -0.20673,0.18492 -7.56448,1.02913 -16.35056,1.87604 -29.40793,2.83469 -50.09653,8.69472 -74.48238,21.09706 -23.47839,11.94083 -43.2071,28.40179 -55.56206,46.35912 -16.98252,24.68324 -26.11755,64.84715 -22.68696,99.74753 2.70679,27.53687 10.40589,49.71092 24.17687,69.63133 15.75269,22.78707 36.19351,35.20024 63.3706,38.4833 7.42687,0.89718 73.53948,-7.01062 87.82525,-10.50488 14.9936,-3.66738 14,-4.84656 14,16.6149 0,10.26667 0.2813,18.66667 0.6251,18.66667 0.3438,0 4.6938,-2.62104 9.6667,-5.82455 z M 914.99133,707.2745 c -10.73589,-5.34107 -20.61013,-15.12416 -25.11775,-24.88588 -3.64293,-7.88917 -3.86858,-9.38099 -3.78974,-25.05531 0.0981,-19.50172 3.46882,-35.66096 10.29833,-49.36992 5.06148,-10.15996 11.9054,-15.43109 30.95117,-23.83836 20.10514,-8.87489 33.73204,-12.25229 52.81062,-13.08898 9.24584,-0.40548 18.95012,-0.33587 21.56504,0.15471 4.4626,0.83718 4.8462,1.31906 6.2488,7.85058 2.0136,9.37643 3.9714,47.93145 4.0104,78.9762 l 0.032,25.35089 -7.2922,5.69531 c -17.11728,13.36874 -37.82811,20.10957 -64.70779,21.06065 -17.36957,0.61459 -18.24547,0.51477 -25.00868,-2.84989 z m 33.04365,-0.67488 c 6.21411,-0.7702 14.89836,-2.3097 19.29836,-3.4211 11.62598,-2.93661 28.67054,-11.5383 35.91786,-18.12626 l 6.2913,-5.71895 -1.4969,-44 c -0.8233,-24.2 -2.2204,-47.6 -3.1046,-52 l -1.6077,-8 -8.66662,-0.9013 c -22.3065,-2.31981 -47.47375,3.66502 -75.11204,17.86185 -11.10834,5.70596 -13.81879,7.74793 -17.05238,12.84679 -8.69806,13.71541 -13.76534,35.73186 -12.94201,56.23069 0.42384,10.5524 1.14175,14.00711 4.21681,20.29233 3.98135,8.13756 12.7772,16.84553 21.55628,21.34089 10.43675,5.34418 14.75728,5.81915 32.70164,3.59506 z m 640.80052,92.40035 c -1.4787,-5.09241 -6.1643,-36.69727 -8.0552,-54.33333 -6.866,-64.03722 -6.0167,-153.76505 2.5874,-273.33332 2.717,-37.75743 9.9038,-121.90253 10.7455,-125.81205 0.6697,-3.11041 0.8359,-3.13921 14.9487,-2.59136 11.2396,0.43632 15.7828,1.22068 21.3858,3.69212 7.1042,3.13356 21.4728,13.4126 22.9848,16.44288 1.5599,3.12597 -1.3568,85.23049 -5.3617,150.93507 -7.8392,128.60528 -8.2017,171.51198 -1.9403,229.62548 1.2026,11.16068 1.8579,21.14834 1.4563,22.19481 -0.4016,1.04647 -8.0312,4.75799 -16.9548,8.24783 -15.2499,5.96393 -16.8887,6.97365 -27.2751,16.80518 -6.0776,5.75301 -11.6788,10.46003 -12.447,10.46003 -0.7683,0 -1.7018,-1.05 -2.0744,-2.33334 z m 20.5774,-18.83873 c 2.1579,-1.74462 10.9728,-5.99417 19.5887,-9.44342 12.6801,-5.07636 15.62,-6.75342 15.4288,-8.8012 -0.1293,-1.3914 -1.33,-12.44187 -2.6667,-24.55658 -2.0073,-18.19288 -2.4213,-32.70206 -2.3785,-83.36006 0.045,-53.55156 0.5959,-70.04553 4.3404,-130 4.5867,-73.43994 6.8816,-121.28022 6.9183,-144.22001 l 0.023,-14.22002 -5.8692,-5.16621 c -11.5021,-10.1247 -28.1945,-15.93974 -40.9126,-14.25262 l -6.2827,0.83343 -0.7865,6.84605 c -2.7954,24.32936 -10.417,121.25646 -13.5914,172.84605 -2.8658,46.57606 -4.0096,151.35337 -1.9796,181.33333 2.1547,31.8178 7.58,77.18833 10.1787,85.12047 0.3987,1.21716 2.7352,-0.0585 7.3257,-4 3.7072,-3.18293 8.506,-7.21457 10.6639,-8.95921 z m 641.2538,2.94309 c -39.8229,-2.8523 -73.8344,-10.62587 -96.6667,-22.09394 -20.3821,-10.23743 -42.4869,-30.04109 -54.831,-49.1232 -27.165,-41.99268 -34.907,-100.64145 -19.0648,-144.42331 8.1981,-22.65694 33.5988,-54.82999 57.5178,-72.85355 14.125,-10.64337 36.9694,-21.71977 53.7114,-26.04254 18.1742,-4.69259 45.8392,-5.81304 66.8724,-2.7084 36.2249,5.34702 84.0676,22.53393 108.6637,39.03618 31.4701,21.11415 55.4991,59.27825 64.4972,102.43774 3.4175,16.39196 4.0907,47.57318 1.4181,65.68634 -9.7657,66.18963 -45.2786,101.43785 -110.4305,109.60719 -9.8828,1.2392 -56.6992,1.55104 -71.6876,0.47749 z m 78.0768,-5.07538 c 16.5547,-2.68297 28.4339,-6.5268 42.5899,-13.78111 15.602,-7.99537 33.5538,-25.27118 41.8228,-40.24786 11.463,-20.76204 17.7442,-48.60617 17.7429,-78.65448 0,-50.73981 -17.2501,-92.81726 -51.1073,-124.67885 -13.8839,-13.06561 -29.5312,-22.52089 -51.6575,-31.21524 -81.6149,-32.07018 -139.3631,-29.04925 -190.2856,9.95427 -17.734,13.58305 -39.9327,39.59201 -48.8223,57.20229 -9.6078,19.03306 -13.0264,34.58069 -13.0264,59.24422 0,47.52575 15.1103,86.39851 45.1732,116.21301 26.1672,25.95103 56.6876,38.89231 106.8268,45.29676 32.2824,4.12355 77.5656,4.42335 100.7435,0.66699 z m -87.4101,-70.82211 c -40.7136,-5.03605 -53.2927,-7.7172 -66.3388,-14.13977 -26.6975,-13.14317 -38.4042,-42.29477 -31.5586,-78.58646 2.5958,-13.76124 11.62,-41.94647 16.6067,-51.86715 7.5972,-15.11409 19.7835,-25.0371 38.624,-31.4505 6.0519,-2.0601 11.2941,-2.49112 30,-2.46659 20.6073,0.0271 23.8755,0.36465 35.9719,3.71627 46.7468,12.95242 82.4476,39.80372 99.9293,75.15895 5.9941,12.12242 10.0988,27.5309 10.0988,37.90938 0,12.7388 -2.3775,20.52994 -9.5265,31.21856 -11.4724,17.15265 -26.1847,27.61527 -45.9348,32.66653 -14.824,3.79132 -34.0823,3.25733 -77.872,-2.15922 z m 76.8185,-1.30244 c 19.6977,-5.13061 37.9568,-19.3001 47.1261,-36.57109 4.0691,-7.66418 4.6648,-10.08356 5.1503,-20.91605 0.4455,-9.93717 -0.013,-14.08357 -2.4023,-21.96636 -13.5713,-44.68063 -57.3106,-80.53358 -112.9136,-92.55497 -12.8853,-2.78579 -39.5469,-3.15263 -49.779,-0.68489 -17.8135,4.29617 -32.4032,14.56813 -40.6296,28.60532 -4.5144,7.70341 -13.2788,33.22435 -16.7762,48.85029 -6.2745,28.03454 -0.8758,54.06941 14.2628,68.78254 6.8447,6.6522 21.3952,14.21621 33.143,17.22908 4.4,1.12845 24.8,4.1096 45.3333,6.62479 20.5333,2.5152 39.4333,4.84202 42,5.17074 7.7436,0.99172 27.2303,-0.41926 35.4852,-2.5694 z m -825.4852,74.55036 c -4.1784,-1.12972 -8.3359,-5.5829 -16.1298,-17.27682 -10.5353,-15.80742 -15.1009,-26.64671 -30.5142,-72.44402 -14.926,-44.34946 -16.6362,-48.43661 -25.5002,-60.94723 -4.0909,-5.77398 -6.5177,-8.05758 -8.1709,-7.689 -55.2611,12.32042 -123.0132,31.57837 -186.2956,52.95281 l -13.2773,4.48458 -3.7521,13.05016 c -5.9287,20.62056 -14.0134,36.52534 -24.5649,48.32546 -2.0873,2.33421 -4.9082,5.56485 -6.2687,7.17917 -2.2874,2.71407 -3.2917,2.87824 -13.3334,2.17971 -9.1712,-0.63798 -26.1002,-4.20704 -49.1929,-10.37108 -3.42,-0.91288 -5,-2.08931 -5,-3.72278 0,-3.91941 64.5728,-145.89542 76.0144,-167.13251 30.9132,-57.37907 70.5574,-113.39901 125.6979,-177.61997 23.859,-27.78806 53.0582,-59.42325 54.8474,-59.42325 1.6836,0 7.6603,11.67679 34.2989,67.01065 71.9683,149.49272 113.3896,252.82831 139.199,347.26612 l 2.2621,8.27679 -3.4839,5.94456 c -8.2085,14.00692 -17.7461,19.79161 -33.5025,20.31997 -5.8667,0.19672 -11.8667,0.0332 -13.3333,-0.36332 z m 25.5861,-5.1677 c 5.5283,-2.27532 15.2913,-11.31583 18.3461,-16.98819 2.3878,-4.43365 2.3718,-4.57153 -2.5169,-21.71377 -23.1765,-81.26951 -56.3003,-165.95893 -109.7424,-280.58511 -25.3544,-54.38166 -56.81,-118.735 -57.8499,-118.35221 -0.5262,0.19372 -6.4778,6.35221 -13.2256,13.68554 -77.1106,83.80181 -134.0757,161.70856 -169.1499,231.33333 -14.5273,28.83789 -69.9959,151.8961 -68.9421,152.94982 1.049,1.04899 34.9063,9.15177 46.2006,11.05681 5.0633,0.85404 10.0209,1.04802 11.1073,0.4346 5.1067,-2.88336 18.854,-20.65861 23.543,-30.44124 4.4446,-9.27261 10.0645,-25.82037 12.478,-36.741 0.6994,-3.16429 3.3031,-4.23386 36.4594,-14.97693 19.6385,-6.36309 45.9063,-14.6371 58.3729,-18.38669 28.0889,-8.44823 104.8095,-27.89537 110.0496,-27.89537 3.1082,0 4.8875,1.3694 9.0958,7 8.6161,11.52837 13.0464,21.99102 27.512,64.97223 13.7938,40.98566 20.572,56.90286 30.104,70.69443 8.3733,12.11496 11.0692,14.82388 15.9305,16.00767 5.5723,1.35689 16.3632,0.35977 22.2276,-2.05392 z M 1238.8961,601.21829 c 0.9622,-4.96547 22.9445,-38.16867 51.5638,-77.88497 44.5276,-61.79281 58.9852,-80.66667 61.792,-80.66667 2.9526,0 6.0882,6.4365 15.2546,31.31421 8.3516,22.66575 26.0582,79.18316 25.5698,81.61543 -0.2899,1.44341 -14.055,6.10147 -47.0763,15.93037 -52.9822,15.77037 -101.4484,30.48171 -105.1972,31.93137 -2.1359,0.826 -2.4332,0.47679 -1.9067,-2.23974 z m 147.3586,-45.20125 c 0.8733,-0.009 1.9532,-0.60798 2.3994,-1.3302 1.6975,-2.74638 -26.7198,-88.35593 -34.2481,-103.17591 l -2.6191,-5.1557 -18.6754,25.1557 c -37.7776,50.88597 -75.6318,104.69817 -88.1029,125.2438 -0.4746,0.78178 30.7544,-8.06055 69.3976,-19.64962 38.6433,-11.58906 70.975,-21.0787 71.8485,-21.08807 z M 31.991368,778.81479 c -5.913965,-1.90619 -11.237178,-5.14869 -14.823025,-9.02911 -3.024839,-3.27332 -3.703398,-5.68056 -5.0135,-17.7857 C 2.5026943,662.81558 1.3333333,642.64707 1.3333333,565.35645 c 0,-70.77711 0.8102035,-86.05701 6.788315,-128.02313 4.8843307,-34.28781 8.8901507,-52.34311 12.2421657,-55.17867 5.672228,-4.7983 34.626224,-18.11897 50.87162,-23.40417 C 114.98682,344.51662 151.887,341.6137 234,345.94583 c 80.54132,4.24921 85.96576,4.74349 93.87842,8.55431 24.89054,11.98754 34.13302,35.4839 26.7561,68.01971 -2.35442,10.3842 -3.56021,13.48014 -5.25013,13.48014 -1.20657,0 -8.39697,-2.08903 -15.97867,-4.6423 C 316.33263,425.60805 294.9549,420.7732 274,417.92231 c -12.77016,-1.73736 -26.63153,-2.1423 -68.66666,-2.00594 -71.10218,0.23064 -86.97241,1.77066 -104.70718,10.16055 -8.60745,4.07197 -18.161414,14.22227 -20.390902,21.66363 -2.470979,8.2474 -5.368331,32.40117 -8.188019,68.25943 -3.865749,49.16114 -4.490893,65.42677 -3.405041,88.59581 l 0.989765,21.1188 12.850686,-0.85098 c 7.067877,-0.46804 37.750681,-4.24638 68.184021,-8.39631 54.65264,-7.45249 55.75159,-7.54689 89.33333,-7.67299 38.70627,-0.14533 42.16646,0.46375 47.3226,8.32998 4.02623,6.14242 8.33452,21.6524 9.45782,34.04833 l 0.86309,9.52461 -11.82175,6.20628 C 262.3683,679.21627 235.30866,686.4484 202,689.30623 c -8.8,0.75503 -33.7,2.26336 -55.33333,3.35184 -40.13057,2.01919 -44.37063,2.3428 -63.7584,4.86633 l -11.091729,1.44372 0.745925,4.84926 c 1.473121,9.57677 4.751873,43.6913 5.023773,52.27102 0.339664,10.71799 -2.481129,15.47802 -11.928878,20.12978 -5.002138,2.46288 -8.832344,3.17226 -18.324027,3.39376 -6.6,0.15401 -13.503884,-0.20471 -15.341966,-0.79715 z m 28.288257,-4.41209 c 5.707784,-1.68396 12.74054,-8.02406 13.863428,-12.49799 0.685517,-2.73132 -1.770456,-31.25465 -4.75622,-55.23807 -0.593416,-4.76666 -0.616007,-9.16888 -0.0502,-9.78268 2.658009,-2.88352 26.592671,-5.03828 98.663367,-8.88236 58.84714,-3.13876 82.89416,-8.00965 112.89591,-22.86785 l 13.56259,-6.7168 -0.70344,-4.87514 c -1.81408,-12.57228 -4.60139,-23.69459 -7.5545,-30.14504 -2.8408,-6.20512 -4.01884,-7.36446 -9.71665,-9.56234 -5.58645,-2.15493 -10.08263,-2.48637 -32.48391,-2.39456 -27.78192,0.11387 -29.15061,0.24551 -97.33333,9.36247 -50.732388,6.78361 -78.101611,9.54009 -79.623613,8.01929 -2.149654,-2.14797 -2.005696,-67.57607 0.215962,-98.15498 3.200556,-44.0524 7.259198,-78.16985 10.250124,-86.16382 2.906123,-7.76731 11.986874,-17.15766 21.076045,-21.7946 3.096832,-1.5799 10.232062,-4.10394 15.856052,-5.60899 9.02845,-2.41612 16.5466,-2.88627 64.22543,-4.01632 59.0068,-1.39853 81.31731,-0.90116 102.66667,2.28879 17.60361,2.63028 39.96381,7.88374 54.57125,12.82137 6.19428,2.0938 11.65428,3.80691 12.13336,3.80691 0.95407,0 3.29661,-9.67724 5.24169,-21.65374 3.55052,-21.86189 -6.8425,-42.2093 -26.82602,-52.51982 -6.36388,-3.28345 -9.10327,-3.77831 -25.78695,-4.65821 C 290.4,352.62675 264.9,351.19734 244,349.99176 c -51.75569,-2.98545 -95.81198,-3.01652 -117.73741,-0.0831 -33.49138,4.48093 -67.336153,15.13882 -93.891059,29.56679 -12.696287,6.89822 -11.704567,4.84239 -16.975946,35.19115 -8.9091789,51.29259 -11.9845766,89.8687 -11.9584232,150 0.024177,55.58775 3.5559108,111.02923 11.2922222,177.26635 2.269427,19.43048 3.057783,23.04755 5.621767,25.79336 8.137868,8.71493 24.018356,11.37027 39.928475,6.67633 z m 1945.297175,1.79989 c -10.2293,-3.63637 -15.4501,-9.42543 -23.6305,-26.20261 -8.1908,-16.79823 -15.5039,-37.43156 -24.1015,-68 -18.6113,-66.17153 -29.2064,-90.54617 -47.0758,-108.30163 -13.2127,-13.12826 -27.2955,-20.10089 -46.6699,-23.10694 -25.6036,-3.97252 -51.1199,9.04404 -69.3099,35.35681 -24.6066,35.59476 -34.6969,78.15413 -28.9016,121.9028 1.2035,9.08473 2.0211,16.65842 1.817,16.83042 -1.7647,1.48674 -9.9858,4.85304 -17.5116,7.17054 -19.2184,5.918 -40.5839,3.01294 -52.4327,-7.12923 l -5.3615,-4.58923 -0.8763,-28.4001 c -2.3617,-76.55187 -2.5314,-95.52721 -0.9872,-110.43323 1.9459,-18.78325 5.6358,-37.38889 10.1911,-51.38641 3.9941,-12.27364 13.664,-33.12426 17.5346,-37.80929 2.6228,-3.17463 2.8297,-3.20205 12.3264,-1.63371 17.3678,2.86823 34.1117,11.97928 38.3505,20.86806 l 2.2456,4.70917 5.4083,-5.22216 c 18.285,-17.6558 46.1592,-28.05876 78.0749,-29.13841 39.8409,-1.34775 69.5491,10.15686 96.7923,37.48325 6.669,6.68945 15.4236,16.66263 19.4544,22.16263 17.2948,23.59842 36.2209,59.63419 51.1197,97.33333 8.4959,21.49726 36.2519,104.58623 37.4795,112.19655 1.5744,9.75967 -3.5695,18.9723 -13.5126,24.2008 -7.7284,4.06392 -30.3978,4.70244 -40.4232,1.13859 z m 38.4214,-4.60701 C 2051.1586,768.09902 2056,761.38031 2056,754.9399 c 0,-5.14595 -18.415,-63.19524 -30.9161,-97.45579 -30.5113,-83.61997 -66.3861,-137.0921 -106.4172,-158.61674 -25.7344,-13.83735 -62.0387,-17.81225 -92.4979,-10.12748 -14.1101,3.55996 -36.4213,15.32603 -46.3732,24.45545 -4.879,4.4759 -9.379,8.12383 -10,8.10655 -0.6209,-0.0173 -2.4337,-3.00181 -4.0284,-6.63228 -2.1742,-4.94968 -4.4926,-7.6112 -9.2682,-10.6398 -8.312,-5.27136 -18.839,-9.15037 -27.5266,-10.14307 l -6.9724,-0.79672 -4.205,7.12164 c -13.3727,22.64827 -21.6826,53.59256 -24.4671,91.11088 -1.849,24.91113 2.1298,125.61073 5.0985,129.04357 1.1255,1.30136 5.978,4.30136 10.7835,6.66667 8,3.93769 9.7517,4.28797 20.7636,4.15169 9.6647,-0.1196 14.1213,-0.90636 22.6932,-4.00619 12.3423,-4.46328 11.5136,-1.884 8.8164,-27.44052 -7.0449,-66.75306 30.7097,-140.92063 77.1836,-151.62406 8.6775,-1.9985 26.0125,-1.71902 35.7489,0.57638 16.8051,3.96184 34.5099,15.17692 45.2182,28.64323 14.6628,18.43952 23.79,40.73727 40.276,98.39356 17.7386,62.03765 29.5937,88.33633 42.9145,95.19983 11.0736,5.70554 30.2223,6.01662 41.1739,0.66888 z m -1604.49904,3.00573 c -28.32184,-7.10269 -49.09612,-37.85319 -59.4065,-87.93467 -7.18323,-34.89171 -9.86594,-67.10899 -9.99231,-119.99999 -0.0969,-40.59057 -0.004,-42.17897 2.77755,-47.33333 7.41324,-13.73831 23.55322,-21.14291 48.45544,-22.2301 l 10,-0.43657 2.9222,9.00823 c 5.86762,18.08801 8.3954,39.29556 10.44816,87.65843 1.07385,25.3 2.58048,50.2 3.34804,55.33334 3.13041,20.93572 8.21573,34.37185 17.41269,46.00689 4.64815,5.88034 5.85201,6.65977 10.28644,6.65977 17.90652,0 43.99422,-14.09196 68.14262,-36.80905 32.41132,-30.49024 41.53852,-61.87441 38.2805,-131.62884 -1.41817,-30.36344 -0.93598,-32.57873 8.59387,-39.48213 12.18585,-8.82739 27.03043,-11.50724 40.91012,-7.38541 9.03505,2.68312 15.00827,9.65274 19.17783,22.37697 2.8843,8.80203 3.14168,11.79932 3.11373,36.2618 -0.0248,21.74619 -0.85171,33.55534 -4.48116,64 -4.83029,40.51758 -5.01519,58.30642 -0.77608,74.67009 2.76732,10.68228 6.31661,15.72965 23.85453,33.92302 18.44432,19.13364 24.76651,26.89916 24.76651,30.42064 0,3.99679 -12.02501,14.20211 -23.14035,19.63863 -10.7576,5.26156 -25.2712,8.68095 -36.84629,8.68095 h -7.81229 l -10.35804,-11.37859 c -13.98632,-15.36436 -20.15208,-23.71385 -24.82806,-33.62141 -2.16314,-4.58334 -4.16973,-8.33334 -4.45909,-8.33334 -0.28936,0 -4.05807,2.68608 -8.37492,5.96908 -23.82137,18.1163 -59.24781,37.02524 -80.18096,42.79676 -10.73214,2.95898 -16.02664,3.5666 -34.66667,3.97855 -12.1,0.26741 -24.32537,-0.0969 -27.16751,-0.80972 z m 52.2973,-4.73292 c 21.43768,-4.4146 44.90837,-15.70688 76.20355,-36.66323 8.43333,-5.64725 16.78792,-11.82866 18.56574,-13.73646 1.77784,-1.9078 3.91827,-3.46872 4.75651,-3.46872 0.83825,0 2.52285,3.15 3.74356,7 3.01047,9.49476 10.40777,20.3728 24.93464,36.66744 l 12.18468,13.66742 7.57411,-0.80458 c 11.98932,-1.27362 23.80206,-4.24463 31.66338,-7.96363 7.95914,-3.76527 20.30382,-12.969 21.46956,-16.00691 0.94718,-2.46825 -5.5936,-10.49473 -25.15462,-30.86837 -20.91796,-21.78693 -22.68888,-25.47439 -25.14527,-52.35804 -1.29848,-14.21101 -1.04192,-18.50509 3.50529,-58.66666 7.54082,-66.60149 6.83888,-90.33055 -3.15336,-106.60184 -8.9769,-14.61789 -29.72158,-16.70615 -47.73185,-4.80489 -10.43291,6.8941 -11.95507,11.22998 -10.06569,28.6723 0.8381,7.73727 1.52297,22.78351 1.5219,33.43607 -0.004,34.2456 -3.84441,54.0795 -14.957,77.23377 -6.08878,12.68665 -7.95866,15.20408 -20.86652,28.09275 -16.59481,16.57014 -28.73812,25.87106 -43.51173,33.3269 -11.58971,5.84901 -28.12811,9.95955 -34.93422,8.68271 -5.5646,-1.04392 -12.58952,-9.22052 -18.36097,-21.37111 -8.67856,-18.2709 -10.54903,-31.22374 -12.70771,-88 -0.80858,-21.26666 -2.35734,-45.56666 -3.44172,-53.99999 -1.76797,-13.7499 -7.57472,-39.46378 -9.30177,-41.19083 -1.31177,-1.31177 -25.85673,2.53784 -32.83157,5.14928 -9.20082,3.44487 -16.15812,9.27729 -19.63566,16.46089 -2.60792,5.38726 -2.78554,7.97072 -2.7732,40.33495 0.0512,134.09125 24.1461,203.00247 73.38643,209.88413 11.09079,1.55001 32.07988,0.57033 45.06351,-2.10335 z"
       id="path341" />
  </g>
</svg>
